<?xml version="1.0" encoding="UTF-8"?>
<svg width="550px" height="125px" viewBox="0 0 550 125" version="1.1" xmlns="http://www.w3.org/2000/svg" xmlns:xlink="http://www.w3.org/1999/xlink">
    <title>Group 11</title>
    <g id="Idea-2" stroke="none" stroke-width="1" fill="none" fill-rule="evenodd">
        <g id="Desktop-HD" transform="translate(-62.000000, -198.000000)">
            <g id="HEADER" transform="translate(0.000000, -0.111264)">
                <g id="Group-11" transform="translate(64.000000, 199.611264)">
                    <path d="M265.396598,77.8923163 C263.478962,83.1388095 260.77171,87.6857703 257.26231,91.5082153 C253.75291,95.3306603 249.529096,98.3411481 244.590868,100.527187 C239.652641,102.713226 234.17547,103.799999 228.146822,103.799999 L155.527305,103.799999 C149.561325,103.787508 144.160609,102.688242 139.321397,100.527187 C134.433303,98.3411481 130.24709,95.3306603 126.73769,91.5082153 C123.215756,87.6857703 120.508505,83.1388095 118.590868,77.8923163 C116.660698,72.6458232 115.708147,66.9121556 115.708147,60.6800712 C115.708147,54.8826963 116.660698,49.4738116 118.590868,44.4521682 C120.508505,39.418033 123.215756,35.0084804 126.73769,31.2484937 C130.24709,27.4772644 134.433303,24.5167432 139.321397,22.3919135 C144.160609,20.2808246 149.561325,19.2190343 155.527305,19.194051 L228.146822,19.194051 C234.17547,19.194051 239.652641,20.2558413 244.590868,22.3919135 C249.529096,24.5167432 253.75291,27.4772644 257.26231,31.2484937 C260.77171,35.0084804 263.478962,39.418033 265.396598,44.4521682 C267.326768,49.4738116 268.27932,54.8826963 268.27932,60.6800712 C268.27932,66.9121556 267.326768,72.6458232 265.396598,77.8923163 M285.400179,36.0827624 C282.31692,28.5378055 278.042972,22.0921139 272.565801,16.7331959 C267.076097,11.3742778 260.558639,7.30199979 252.989615,4.51636175 C245.418084,1.7307237 237.083259,0.39411711 227.971352,0.506541963 L155.527305,0.506541963 C146.528201,0.506541963 138.28111,1.95557341 130.760967,4.84239383 C123.253357,7.73920756 116.7735,11.8627014 111.346464,17.2203702 C105.919427,22.5805374 101.670546,29.0624548 98.5998209,36.6573783 C95.5290958,44.2523017 94,52.6966574 94,61.9916945 C94,71.0593836 95.5290958,79.3176137 98.5998209,86.7488965 C101.670546,94.1814285 105.919427,100.553419 111.346464,105.84863 C116.7735,111.157581 123.253357,115.254843 130.760967,118.152906 C138.28111,121.050969 146.528201,122.5 155.527305,122.5 L227.971352,122.5 C237.083259,122.387575 245.418084,120.826119 252.989615,117.815631 C260.558639,114.818884 267.076097,110.646673 272.565801,105.286506 C278.042972,99.9288368 282.31692,93.5331118 285.400179,86.0993307 C288.458371,78.6667987 290,70.4098177 290,61.3408795 C290,52.0483408 288.458371,43.6277192 285.400179,36.0827624" id="Fill-1" fill="#FFFFFE"></path>
                    <polygon id="Fill-3" fill="#FFFFFE" points="358.721599 3.5 340.758032 3.5 290 119.5 313.233232 119.5 323.785117 92.9499484 323.825295 92.9499484 330.887926 75.2673868 330.874115 75.2673868 349.15911 28.0818557 364.031442 67.1300138 364.084177 67.2635566 385.259514 119.5 409 119.5"></polygon>
                    <polygon id="Fill-5" fill="#FFFFFE" points="516.822791 3.5 485.500625 84.7601567 454.495866 3.5 423 3.5 423 119.5 442.675544 119.5 442.675544 23.1632381 443.007948 23.1632381 478.271471 119.5 492.714783 119.5 527.979556 23.1632381 528.31071 23.1632381 528.31071 119.5 548 119.5 548 3.5"></polygon>
                    <path d="M46.058225,75.7490916 L80.1991989,120.5 L64.9974678,120.5 L24.0106812,66.1789764 L35.7643376,66.1789764 C57.1700864,66.1789764 69.9053115,55.3207686 69.9053115,38.9291351 C69.9053115,27.5861748 62.8833198,11.3694521 35.123801,11.3694521 L12.0946885,11.3694521 L12.0946885,120.5 L0,120.5 L0,0.5 L36.4199751,0.5 C67.9547582,0.5 82,18.9780685 82,39.2552187 C82,58.7202834 67.3003791,74.1249206 46.058225,75.7490916" id="Fill-7" fill="#FFFFFE"></path>
                    <path d="M46.058225,75.7490916 L80.1991989,120.5 L64.9974678,120.5 L24.0106812,66.1789764 L35.7643376,66.1789764 C57.1700864,66.1789764 69.9053115,55.3207686 69.9053115,38.9291351 C69.9053115,27.5861748 62.8833198,11.3694521 35.123801,11.3694521 L12.0946885,11.3694521 L12.0946885,120.5 L0,120.5 L0,0.5 L36.4199751,0.5 C67.9547582,0.5 82,18.9780685 82,39.2552187 C82,58.7202834 67.3003791,74.1249206 46.058225,75.7490916 Z" id="Stroke-9" stroke="#FFFFFE" stroke-width="3"></path>
                </g>
            </g>
        </g>
    </g>
</svg>